<?xml version="1.0" standalone="no"?>
<!DOCTYPE svg PUBLIC "-//W3C//DTD SVG 20010904//EN"
 "http://www.w3.org/TR/2001/REC-SVG-20010904/DTD/svg10.dtd">
<svg version="1.0" xmlns="http://www.w3.org/2000/svg"
 width="96.000000pt" height="96.000000pt" viewBox="0 0 96.000000 96.000000"
 preserveAspectRatio="xMidYMid meet">
<metadata>
Created by potrace 1.14, written by Peter Selinger 2001-2017
</metadata>
<g transform="translate(0.000000,96.000000) scale(0.100000,-0.100000)"
fill="#000000" stroke="none">
<path d="M234 862 c-10 -9 -49 -43 -86 -74 l-68 -57 26 -31 26 -30 46 39 c26
21 67 57 92 79 l45 40 -24 26 c-29 31 -32 31 -57 8z"/>
<path d="M672 857 c-12 -13 -22 -27 -21 -33 0 -5 40 -41 87 -81 l87 -72 28 30
28 30 -90 75 c-49 40 -91 74 -93 74 -3 0 -14 -10 -26 -23z"/>
<path d="M397 789 c-83 -20 -157 -70 -212 -144 -71 -95 -83 -251 -27 -361 67
-134 187 -205 335 -201 135 4 251 82 311 207 27 57 31 76 31 150 0 75 -4 93
-31 150 -47 97 -116 159 -214 192 -52 17 -139 21 -193 7z m172 -86 c78 -24
150 -96 175 -176 69 -220 -127 -417 -349 -352 -45 13 -69 28 -110 69 -113 113
-113 279 0 391 79 79 175 102 284 68z"/>
<path d="M442 518 l3 -122 90 -53 c49 -29 92 -53 95 -53 4 0 12 10 17 23 10
22 6 26 -68 71 l-79 47 0 105 0 104 -30 0 -31 0 3 -122z"/>
</g>
</svg>
